<svg width="33" height="32" viewBox="0 0 33 32" fill="none" xmlns="http://www.w3.org/2000/svg">
<path fill-rule="evenodd" clip-rule="evenodd" d="M16.0714 32.0001C32.1988 32.0001 32.1384 25.7466 32.0609 17.7179C32.0555 17.1535 32.0499 16.5804 32.0499 16.0001C32.0499 7.1635 24.8961 5.34058e-05 16.0714 5.34058e-05C7.24671 5.34058e-05 0.092875 7.1635 0.092875 16.0001C0.092875 16.5804 0.0873435 17.1535 0.0818967 17.7179C0.00440796 25.7466 -0.0559463 32.0001 16.0714 32.0001ZM16.1753 28.8832C29.0562 28.8832 29.008 23.8886 28.9461 17.476C28.9418 17.0252 28.9374 16.5675 28.9374 16.104C28.9374 9.04618 23.2236 3.32473 16.1753 3.32473C9.127 3.32473 3.41322 9.04618 3.41322 16.104C3.41322 16.5675 3.4088 17.0252 3.40445 17.476C3.34256 23.8886 3.29436 28.8832 16.1753 28.8832ZM25.0006 16.9594C25.0439 21.4429 25.0776 24.9351 16.0714 24.9351C7.06521 24.9351 7.09892 21.4429 7.14219 16.9594C7.14523 16.6442 7.14832 16.3241 7.14832 16.0001C7.14832 11.0654 11.1433 7.06499 16.0714 7.06499C20.9995 7.06499 24.9945 11.0654 24.9945 16.0001C24.9945 16.3241 24.9976 16.6442 25.0006 16.9594Z" fill="#FF9800"/>
</svg>
