<svg width="130" height="29" viewBox="0 0 130 29" fill="none" xmlns="http://www.w3.org/2000/svg">
<path fill-rule="evenodd" clip-rule="evenodd" d="M14.5706 28.1697C29.2572 28.1697 29.2022 22.6648 29.1316 15.5971C29.1267 15.1003 29.1216 14.5957 29.1216 14.0848C29.1216 6.306 22.6069 0 14.5706 0C6.53427 0 0.0195463 6.306 0.0195463 14.0848C0.0195463 14.5957 0.014509 15.1003 0.00954881 15.5971C-0.0610173 22.6648 -0.11598 28.1697 14.5706 28.1697ZM14.6652 25.426C26.3954 25.426 26.3515 21.0293 26.2951 15.3842C26.2911 14.9875 26.2871 14.5845 26.2871 14.1764C26.2871 7.96347 21.0838 2.92686 14.6652 2.92686C8.24655 2.92686 3.04322 7.96347 3.04322 14.1764C3.04322 14.5845 3.0392 14.9875 3.03524 15.3843C2.97888 21.0293 2.93498 25.426 14.6652 25.426ZM22.7021 14.9293C22.7415 18.8762 22.7722 21.9504 14.5706 21.9504C6.36897 21.9504 6.39966 18.8762 6.43907 14.9293C6.44184 14.6519 6.44465 14.3701 6.44465 14.0848C6.44465 9.7408 10.0827 6.21926 14.5706 6.21926C19.0584 6.21926 22.6965 9.7408 22.6965 14.0848C22.6965 14.3701 22.6993 14.6519 22.7021 14.9293Z" fill="#0A0A0A"/>
<mask id="mask0" mask-type="alpha" maskUnits="userSpaceOnUse" x="0" y="0" width="30" height="29">
<path fill-rule="evenodd" clip-rule="evenodd" d="M14.5706 28.1697C29.2572 28.1697 29.2022 22.6648 29.1316 15.5971C29.1267 15.1003 29.1216 14.5957 29.1216 14.0848C29.1216 6.306 22.6069 0 14.5706 0C6.53427 0 0.0195463 6.306 0.0195463 14.0848C0.0195463 14.5957 0.014509 15.1003 0.00954881 15.5971C-0.0610173 22.6648 -0.11598 28.1697 14.5706 28.1697ZM14.6652 25.426C26.3954 25.426 26.3515 21.0293 26.2951 15.3842C26.2911 14.9875 26.2871 14.5845 26.2871 14.1764C26.2871 7.96347 21.0838 2.92686 14.6652 2.92686C8.24655 2.92686 3.04322 7.96347 3.04322 14.1764C3.04322 14.5845 3.0392 14.9875 3.03524 15.3843C2.97888 21.0293 2.93498 25.426 14.6652 25.426ZM22.7021 14.9293C22.7415 18.8762 22.7722 21.9504 14.5706 21.9504C6.36897 21.9504 6.39966 18.8762 6.43907 14.9293C6.44184 14.6519 6.44465 14.3701 6.44465 14.0848C6.44465 9.7408 10.0827 6.21926 14.5706 6.21926C19.0584 6.21926 22.6965 9.7408 22.6965 14.0848C22.6965 14.3701 22.6993 14.6519 22.7021 14.9293Z" fill="white"/>
</mask>
<g mask="url(#mask0)">
<rect x="-0.38855" y="-0.35965" width="29.9183" height="28.9209" fill="#FF9800"/>
</g>
<path fill-rule="evenodd" clip-rule="evenodd" d="M113.364 10.4211C113.364 9.87837 113.449 9.35551 113.619 8.85245C113.79 8.34939 114.039 7.90579 114.367 7.52164C114.695 7.13749 115.097 6.83108 115.573 6.60242C116.049 6.37376 116.59 6.25943 117.196 6.25943H117.29C117.473 6.25943 117.615 6.31278 117.716 6.41949C117.817 6.5262 117.867 6.67102 117.867 6.85395V8.11616C117.867 8.29299 117.818 8.44238 117.721 8.56434C117.623 8.68629 117.489 8.74726 117.319 8.74726C117.224 8.74726 117.104 8.77013 116.959 8.81586C116.814 8.8616 116.675 8.93324 116.543 9.0308C116.41 9.12837 116.297 9.25337 116.202 9.40581C116.108 9.55825 116.06 9.73813 116.06 9.94545V11.4272H117.432C117.615 11.4272 117.757 11.4729 117.858 11.5644C117.959 11.6558 118.009 11.8083 118.009 12.0217V13.1467C118.009 13.3601 117.959 13.5202 117.858 13.6269C117.757 13.7336 117.615 13.787 117.432 13.787H116.06V21.406C116.06 21.6011 115.994 21.7489 115.862 21.8496C115.729 21.9502 115.584 22.0005 115.426 22.0005H113.96C113.771 22.0005 113.624 21.9441 113.52 21.8313C113.416 21.7185 113.364 21.5767 113.364 21.406V13.787H112.427C112.244 13.787 112.096 13.7336 111.983 13.6269C111.869 13.5202 111.812 13.3601 111.812 13.1467V12.0217C111.812 11.8083 111.869 11.6558 111.983 11.5644C112.096 11.4729 112.244 11.4272 112.427 11.4272H113.364V10.4211ZM66.69 21.8634C66.7562 21.7719 66.8177 21.6347 66.8745 21.4518L66.9596 20.6744C67.1803 20.8878 67.4247 21.089 67.6928 21.278C67.9609 21.4671 68.2494 21.6302 68.5584 21.7674C68.8675 21.9046 69.1923 22.0128 69.5329 22.0921C69.8735 22.1713 70.2298 22.211 70.6019 22.211C71.4534 22.211 72.2465 22.054 72.9813 21.7399C73.7161 21.4259 74.3562 20.9975 74.9018 20.4549C75.4474 19.9122 75.8747 19.2765 76.1837 18.5478C76.4928 17.8191 76.6473 17.0402 76.6473 16.2109C76.6473 15.3755 76.4928 14.5935 76.1837 13.8648C75.8747 13.1362 75.4474 12.5005 74.9018 11.9578C74.3562 11.4151 73.7161 10.9868 72.9813 10.6727C72.2465 10.3587 71.4534 10.2017 70.6019 10.2017C69.8388 10.2017 69.1624 10.3358 68.5726 10.6041C67.9829 10.8724 67.461 11.2322 67.0069 11.6834V7.48519C67.0069 7.33275 66.9533 7.20318 66.8461 7.09647C66.7389 6.98976 66.5906 6.9364 66.4014 6.9364H64.8404C64.6954 6.9364 64.5661 6.98823 64.4525 7.09189C64.339 7.19555 64.2822 7.32665 64.2822 7.48519V21.4518C64.2822 21.8177 64.4809 22.0006 64.8783 22.0006H66.3068C66.496 22.0006 66.6237 21.9549 66.69 21.8634ZM36.3544 8.82047C36.3544 8.71681 36.3907 8.62382 36.4632 8.5415C36.5358 8.45918 36.6351 8.41803 36.7612 8.41803H38.6534C38.7606 8.41803 38.8615 8.45766 38.9561 8.53693C39.0507 8.6162 39.098 8.71071 39.098 8.82047V13.5583H45.4366V8.82047C45.4366 8.71071 45.4745 8.6162 45.5502 8.53693C45.6259 8.45766 45.7268 8.41803 45.8529 8.41803H47.7167C47.8428 8.41803 47.9516 8.45309 48.043 8.52321C48.1345 8.59333 48.1802 8.68937 48.1802 8.81132V21.5981C48.1802 21.8664 48.032 22.0005 47.7356 22.0005H45.8529C45.5754 22.0005 45.4366 21.8664 45.4366 21.5981V16.0645H39.098V21.5981C39.098 21.8664 38.9435 22.0005 38.6344 22.0005H36.7612C36.49 22.0005 36.3544 21.8755 36.3544 21.6255V8.82047ZM61.4725 21.6439C61.4725 21.7109 61.4488 21.7628 61.4015 21.7993C61.3542 21.8359 61.2959 21.8618 61.2265 21.8771C61.1571 21.8923 61.0814 21.9015 60.9994 21.9045C60.9174 21.9076 60.8449 21.9091 60.7818 21.9091H59.8263C59.6434 21.9091 59.5078 21.8527 59.4195 21.7399C59.3312 21.6271 59.2713 21.4975 59.2397 21.3512L59.1357 20.5188C58.9969 20.7201 58.8235 20.9137 58.6153 21.0996C58.4072 21.2856 58.1612 21.4503 57.8774 21.5935C57.5936 21.7368 57.2672 21.8512 56.8982 21.9365C56.5293 22.0219 56.1114 22.0646 55.6447 22.0646C54.8942 22.0646 54.2319 21.935 53.658 21.6759C53.084 21.4167 52.6031 21.0631 52.2152 20.6149C51.8273 20.1667 51.5325 19.6377 51.3307 19.028C51.1288 18.4182 51.0279 17.7627 51.0279 17.0615V10.9608C51.0279 10.7413 51.0815 10.5751 51.1887 10.4623C51.296 10.3495 51.4505 10.2931 51.6523 10.2931H53.0903C53.3426 10.2931 53.5113 10.3388 53.5965 10.4303C53.6816 10.5218 53.7242 10.6834 53.7242 10.9151V17.0157C53.7242 17.3389 53.7762 17.6545 53.8803 17.9624C53.9844 18.2703 54.1405 18.5463 54.3486 18.7902C54.5567 19.0341 54.8169 19.2292 55.1291 19.3755C55.4413 19.5219 55.8055 19.595 56.2218 19.595C56.5119 19.595 56.8147 19.5463 57.13 19.4487C57.4454 19.3511 57.7324 19.2018 57.9909 19.0005C58.2495 18.7993 58.464 18.5478 58.6343 18.2459C58.8046 17.9441 58.8897 17.592 58.8897 17.1895V11.2535C58.8897 11.1437 58.896 11.0325 58.9086 10.9196C58.9212 10.8068 58.948 10.7032 58.989 10.6087C59.03 10.5142 59.0868 10.4379 59.1593 10.38C59.2319 10.3221 59.3312 10.2931 59.4573 10.2931H61.0183C61.2265 10.2931 61.3794 10.3419 61.4772 10.4395C61.575 10.537 61.6238 10.6742 61.6238 10.851V21.3695C61.6238 21.4914 61.5734 21.5829 61.4725 21.6439ZM73.9889 16.2108C73.9889 15.7291 73.9006 15.2687 73.724 14.8297C73.5474 14.3907 73.3014 14.005 72.986 13.6727C72.6707 13.3403 72.2986 13.0751 71.8697 12.8769C71.4408 12.6787 70.9772 12.5797 70.479 12.5797C69.9744 12.5797 69.4998 12.6787 69.0551 12.8769C68.6105 13.0751 68.2226 13.3403 67.8915 13.6727C67.5604 14.005 67.3002 14.3907 67.111 14.8297C66.9218 15.2687 66.8272 15.7291 66.8272 16.2108V16.2748C66.8335 16.7565 66.9344 17.2093 67.1299 17.6331C67.3254 18.0569 67.5872 18.4288 67.9151 18.7489C68.2431 19.0691 68.6263 19.3221 69.0646 19.5081C69.5029 19.6941 69.9744 19.7871 70.479 19.7871C70.9772 19.7871 71.4408 19.6925 71.8697 19.5035C72.2986 19.3145 72.6707 19.0584 72.986 18.7352C73.3014 18.412 73.5474 18.0325 73.724 17.5965C73.9006 17.1605 73.9889 16.6986 73.9889 16.2108ZM81.212 21.8634C81.2782 21.7719 81.3397 21.6347 81.3965 21.4518L81.4816 20.6744C81.7024 20.8878 81.9468 21.089 82.2148 21.278C82.4829 21.4671 82.7714 21.6302 83.0805 21.7674C83.3895 21.9046 83.7144 22.0128 84.0549 22.0921C84.3955 22.1713 84.7519 22.211 85.124 22.211C85.9755 22.211 86.7686 22.054 87.5033 21.7399C88.2381 21.4259 88.8783 20.9975 89.4238 20.4549C89.9694 19.9122 90.3967 19.2765 90.7058 18.5478C91.0148 17.8191 91.1693 17.0402 91.1693 16.2109C91.1693 15.3755 91.0148 14.5935 90.7058 13.8648C90.3967 13.1362 89.9694 12.5005 89.4238 11.9578C88.8783 11.4151 88.2381 10.9868 87.5033 10.6727C86.7686 10.3587 85.9755 10.2017 85.124 10.2017C84.3608 10.2017 83.6844 10.3358 83.0947 10.6041C82.505 10.8724 81.9831 11.2322 81.5289 11.6834V7.48519C81.5289 7.33275 81.4753 7.20318 81.3681 7.09647C81.2609 6.98976 81.1127 6.9364 80.9235 6.9364H79.3625C79.2174 6.9364 79.0881 6.98823 78.9746 7.09189C78.861 7.19555 78.8043 7.32665 78.8043 7.48519V21.4518C78.8043 21.8177 79.003 22.0006 79.4003 22.0006H80.8289C81.0181 22.0006 81.1458 21.9549 81.212 21.8634ZM88.5109 16.2108C88.5109 15.7291 88.4226 15.2687 88.246 14.8297C88.0694 14.3907 87.8234 14.005 87.5081 13.6727C87.1927 13.3403 86.8206 13.0751 86.3917 12.8769C85.9628 12.6787 85.4993 12.5797 85.001 12.5797C84.4964 12.5797 84.0218 12.6787 83.5772 12.8769C83.1325 13.0751 82.7446 13.3403 82.4135 13.6727C82.0824 14.005 81.8222 14.3907 81.633 14.8297C81.4438 15.2687 81.3492 15.7291 81.3492 16.2108V16.2748C81.3555 16.7565 81.4564 17.2093 81.6519 17.6331C81.8475 18.0569 82.1092 18.4288 82.4372 18.7489C82.7651 19.0691 83.1483 19.3221 83.5866 19.5081C84.025 19.6941 84.4964 19.7871 85.001 19.7871C85.4993 19.7871 85.9628 19.6925 86.3917 19.5035C86.8206 19.3145 87.1927 19.0584 87.5081 18.7352C87.8234 18.412 88.0694 18.0325 88.246 17.5965C88.4226 17.1605 88.5109 16.6986 88.5109 16.2108ZM93.4588 7.09189C93.3705 7.19555 93.3264 7.32665 93.3264 7.48519V21.4518C93.3264 21.6347 93.3689 21.7719 93.4541 21.8634C93.5392 21.9549 93.6827 22.0006 93.8845 22.0006H95.4645C95.6411 22.0006 95.7814 21.9549 95.8855 21.8634C95.9895 21.7719 96.0416 21.6347 96.0416 21.4518V7.48519C96.0416 7.32665 95.9864 7.19555 95.876 7.09189C95.7656 6.98823 95.6474 6.9364 95.5212 6.9364H93.8656C93.6827 6.9364 93.5471 6.98823 93.4588 7.09189ZM108.52 20.7199C107.965 21.1772 107.358 21.537 106.699 21.7992C106.04 22.0614 105.316 22.1925 104.528 22.1925C103.676 22.1925 102.869 22.037 102.106 21.726C101.343 21.415 100.674 20.9882 100.1 20.4455C99.5263 19.9028 99.0706 19.2671 98.7332 18.5385C98.3957 17.8098 98.227 17.0247 98.227 16.1833C98.227 15.6406 98.2964 15.1162 98.4352 14.6101C98.5739 14.104 98.771 13.6299 99.0264 13.1878C99.2819 12.7457 99.5925 12.3402 99.9583 11.9713C100.324 11.6024 100.733 11.2869 101.183 11.0247C101.634 10.7625 102.123 10.5597 102.65 10.4164C103.177 10.2731 103.733 10.2015 104.32 10.2015C104.799 10.2015 105.272 10.2579 105.739 10.3707C106.205 10.4835 106.649 10.6436 107.068 10.8509C107.487 11.0582 107.88 11.3097 108.246 11.6055C108.612 11.9012 108.933 12.235 109.211 12.607C109.589 13.1192 109.867 13.671 110.043 14.2625C110.22 14.854 110.308 15.5095 110.308 16.229C110.308 16.4058 110.3 16.5537 110.285 16.6726C110.269 16.7915 110.229 16.8875 110.166 16.9607C110.103 17.0339 110.009 17.0872 109.883 17.1208C109.756 17.1543 109.58 17.1711 109.353 17.1711H100.961C101.043 17.6101 101.199 17.9988 101.429 18.3372C101.66 18.6757 101.932 18.9623 102.248 19.197C102.563 19.4318 102.907 19.6086 103.279 19.7275C103.651 19.8464 104.023 19.9059 104.395 19.9059C104.679 19.9059 104.952 19.8784 105.214 19.8235C105.475 19.7687 105.72 19.6955 105.947 19.604C106.174 19.5126 106.384 19.4074 106.576 19.2885C106.768 19.1696 106.937 19.0461 107.082 18.918C107.082 18.912 107.085 18.9089 107.092 18.9089C107.167 18.8418 107.24 18.7885 107.309 18.7488C107.379 18.7092 107.451 18.6894 107.527 18.6894C107.584 18.6894 107.648 18.7077 107.721 18.7443C107.793 18.7809 107.864 18.8418 107.934 18.9272C108.104 19.1284 108.249 19.2961 108.369 19.4302C108.489 19.5644 108.586 19.6772 108.662 19.7687C108.738 19.8601 108.793 19.9394 108.828 20.0065C108.862 20.0735 108.88 20.1406 108.88 20.2077C108.88 20.3784 108.76 20.5492 108.52 20.7199ZM103.232 12.6665C103.585 12.5354 103.948 12.4698 104.32 12.4698C104.749 12.4698 105.149 12.5308 105.521 12.6528C105.893 12.7747 106.224 12.947 106.514 13.1695C106.805 13.3921 107.052 13.6574 107.257 13.9653C107.462 14.2732 107.615 14.6132 107.716 14.9851H101.018C101.119 14.6315 101.278 14.3022 101.496 13.9973C101.713 13.6924 101.969 13.4272 102.262 13.2016C102.555 12.9759 102.878 12.7976 103.232 12.6665ZM123.799 25.6545C123.887 25.5905 123.96 25.4914 124.017 25.3573L129.759 11.0156C129.772 11.0034 129.786 10.9577 129.802 10.8784C129.818 10.7992 129.825 10.7382 129.825 10.6955C129.825 10.6101 129.792 10.5385 129.726 10.4806C129.66 10.4226 129.538 10.3937 129.362 10.3937H127.583C127.438 10.3937 127.322 10.4257 127.233 10.4897C127.145 10.5537 127.072 10.6528 127.016 10.787L124.215 18.1499C124.14 17.9669 124.039 17.7154 123.913 17.3953C123.786 17.0752 123.646 16.7154 123.492 16.316C123.337 15.9166 123.173 15.4898 123 15.0355C122.826 14.5812 122.654 14.1285 122.484 13.6773C122.314 13.226 122.15 12.7885 121.992 12.3647C121.834 11.9409 121.692 11.5583 121.566 11.2169L121.396 10.787C121.295 10.5309 121.109 10.4028 120.838 10.4028H119.126C118.968 10.4028 118.851 10.4333 118.775 10.4943C118.7 10.5553 118.662 10.6376 118.662 10.7412C118.662 10.8266 118.678 10.9028 118.709 10.9699V11.0522C118.716 11.0583 118.719 11.0675 118.719 11.0797L122.938 21.0218L121.273 25.1286C121.26 25.1408 121.246 25.1865 121.23 25.2658C121.215 25.3451 121.207 25.406 121.207 25.4487C121.207 25.5341 121.24 25.6057 121.306 25.6637C121.372 25.7216 121.494 25.7506 121.67 25.7506H123.449C123.594 25.7506 123.711 25.7185 123.799 25.6545Z" fill="#0A0A0A"/>
<mask id="mask1" mask-type="alpha" maskUnits="userSpaceOnUse" x="36" y="6" width="94" height="20">
<path fill-rule="evenodd" clip-rule="evenodd" d="M113.364 10.4211C113.364 9.87837 113.449 9.35551 113.619 8.85245C113.79 8.34939 114.039 7.90579 114.367 7.52164C114.695 7.13749 115.097 6.83108 115.573 6.60242C116.049 6.37376 116.59 6.25943 117.196 6.25943H117.29C117.473 6.25943 117.615 6.31278 117.716 6.41949C117.817 6.5262 117.867 6.67102 117.867 6.85395V8.11616C117.867 8.29299 117.818 8.44238 117.721 8.56434C117.623 8.68629 117.489 8.74726 117.319 8.74726C117.224 8.74726 117.104 8.77013 116.959 8.81586C116.814 8.8616 116.675 8.93324 116.543 9.0308C116.41 9.12837 116.297 9.25337 116.202 9.40581C116.108 9.55825 116.06 9.73813 116.06 9.94545V11.4272H117.432C117.615 11.4272 117.757 11.4729 117.858 11.5644C117.959 11.6558 118.009 11.8083 118.009 12.0217V13.1467C118.009 13.3601 117.959 13.5202 117.858 13.6269C117.757 13.7336 117.615 13.787 117.432 13.787H116.06V21.406C116.06 21.6011 115.994 21.7489 115.862 21.8496C115.729 21.9502 115.584 22.0005 115.426 22.0005H113.96C113.771 22.0005 113.624 21.9441 113.52 21.8313C113.416 21.7185 113.364 21.5767 113.364 21.406V13.787H112.427C112.244 13.787 112.096 13.7336 111.983 13.6269C111.869 13.5202 111.812 13.3601 111.812 13.1467V12.0217C111.812 11.8083 111.869 11.6558 111.983 11.5644C112.096 11.4729 112.244 11.4272 112.427 11.4272H113.364V10.4211ZM66.69 21.8634C66.7562 21.7719 66.8177 21.6347 66.8745 21.4518L66.9596 20.6744C67.1803 20.8878 67.4247 21.089 67.6928 21.278C67.9609 21.4671 68.2494 21.6302 68.5584 21.7674C68.8675 21.9046 69.1923 22.0128 69.5329 22.0921C69.8735 22.1713 70.2298 22.211 70.6019 22.211C71.4534 22.211 72.2465 22.054 72.9813 21.7399C73.7161 21.4259 74.3562 20.9975 74.9018 20.4549C75.4474 19.9122 75.8747 19.2765 76.1837 18.5478C76.4928 17.8191 76.6473 17.0402 76.6473 16.2109C76.6473 15.3755 76.4928 14.5935 76.1837 13.8648C75.8747 13.1362 75.4474 12.5005 74.9018 11.9578C74.3562 11.4151 73.7161 10.9868 72.9813 10.6727C72.2465 10.3587 71.4534 10.2017 70.6019 10.2017C69.8388 10.2017 69.1624 10.3358 68.5726 10.6041C67.9829 10.8724 67.461 11.2322 67.0069 11.6834V7.48519C67.0069 7.33275 66.9533 7.20318 66.8461 7.09647C66.7389 6.98976 66.5906 6.9364 66.4014 6.9364H64.8404C64.6954 6.9364 64.5661 6.98823 64.4525 7.09189C64.339 7.19555 64.2822 7.32665 64.2822 7.48519V21.4518C64.2822 21.8177 64.4809 22.0006 64.8783 22.0006H66.3068C66.496 22.0006 66.6237 21.9549 66.69 21.8634ZM36.3544 8.82047C36.3544 8.71681 36.3907 8.62382 36.4632 8.5415C36.5358 8.45918 36.6351 8.41803 36.7612 8.41803H38.6534C38.7606 8.41803 38.8615 8.45766 38.9561 8.53693C39.0507 8.6162 39.098 8.71071 39.098 8.82047V13.5583H45.4366V8.82047C45.4366 8.71071 45.4745 8.6162 45.5502 8.53693C45.6259 8.45766 45.7268 8.41803 45.8529 8.41803H47.7167C47.8428 8.41803 47.9516 8.45309 48.043 8.52321C48.1345 8.59333 48.1802 8.68937 48.1802 8.81132V21.5981C48.1802 21.8664 48.032 22.0005 47.7356 22.0005H45.8529C45.5754 22.0005 45.4366 21.8664 45.4366 21.5981V16.0645H39.098V21.5981C39.098 21.8664 38.9435 22.0005 38.6344 22.0005H36.7612C36.49 22.0005 36.3544 21.8755 36.3544 21.6255V8.82047ZM61.4725 21.6439C61.4725 21.7109 61.4488 21.7628 61.4015 21.7993C61.3542 21.8359 61.2959 21.8618 61.2265 21.8771C61.1571 21.8923 61.0814 21.9015 60.9994 21.9045C60.9174 21.9076 60.8449 21.9091 60.7818 21.9091H59.8263C59.6434 21.9091 59.5078 21.8527 59.4195 21.7399C59.3312 21.6271 59.2713 21.4975 59.2397 21.3512L59.1357 20.5188C58.9969 20.7201 58.8235 20.9137 58.6153 21.0996C58.4072 21.2856 58.1612 21.4503 57.8774 21.5935C57.5936 21.7368 57.2672 21.8512 56.8982 21.9365C56.5293 22.0219 56.1114 22.0646 55.6447 22.0646C54.8942 22.0646 54.2319 21.935 53.658 21.6759C53.084 21.4167 52.6031 21.0631 52.2152 20.6149C51.8273 20.1667 51.5325 19.6377 51.3307 19.028C51.1288 18.4182 51.0279 17.7627 51.0279 17.0615V10.9608C51.0279 10.7413 51.0815 10.5751 51.1887 10.4623C51.296 10.3495 51.4505 10.2931 51.6523 10.2931H53.0903C53.3426 10.2931 53.5113 10.3388 53.5965 10.4303C53.6816 10.5218 53.7242 10.6834 53.7242 10.9151V17.0157C53.7242 17.3389 53.7762 17.6545 53.8803 17.9624C53.9844 18.2703 54.1405 18.5463 54.3486 18.7902C54.5567 19.0341 54.8169 19.2292 55.1291 19.3755C55.4413 19.5219 55.8055 19.595 56.2218 19.595C56.5119 19.595 56.8147 19.5463 57.13 19.4487C57.4454 19.3511 57.7324 19.2018 57.9909 19.0005C58.2495 18.7993 58.464 18.5478 58.6343 18.2459C58.8046 17.9441 58.8897 17.592 58.8897 17.1895V11.2535C58.8897 11.1437 58.896 11.0325 58.9086 10.9196C58.9212 10.8068 58.948 10.7032 58.989 10.6087C59.03 10.5142 59.0868 10.4379 59.1593 10.38C59.2319 10.3221 59.3312 10.2931 59.4573 10.2931H61.0183C61.2265 10.2931 61.3794 10.3419 61.4772 10.4395C61.575 10.537 61.6238 10.6742 61.6238 10.851V21.3695C61.6238 21.4914 61.5734 21.5829 61.4725 21.6439ZM73.9889 16.2108C73.9889 15.7291 73.9006 15.2687 73.724 14.8297C73.5474 14.3907 73.3014 14.005 72.986 13.6727C72.6707 13.3403 72.2986 13.0751 71.8697 12.8769C71.4408 12.6787 70.9772 12.5797 70.479 12.5797C69.9744 12.5797 69.4998 12.6787 69.0551 12.8769C68.6105 13.0751 68.2226 13.3403 67.8915 13.6727C67.5604 14.005 67.3002 14.3907 67.111 14.8297C66.9218 15.2687 66.8272 15.7291 66.8272 16.2108V16.2748C66.8335 16.7565 66.9344 17.2093 67.1299 17.6331C67.3254 18.0569 67.5872 18.4288 67.9151 18.7489C68.2431 19.0691 68.6263 19.3221 69.0646 19.5081C69.5029 19.6941 69.9744 19.7871 70.479 19.7871C70.9772 19.7871 71.4408 19.6925 71.8697 19.5035C72.2986 19.3145 72.6707 19.0584 72.986 18.7352C73.3014 18.412 73.5474 18.0325 73.724 17.5965C73.9006 17.1605 73.9889 16.6986 73.9889 16.2108ZM81.212 21.8634C81.2782 21.7719 81.3397 21.6347 81.3965 21.4518L81.4816 20.6744C81.7024 20.8878 81.9468 21.089 82.2148 21.278C82.4829 21.4671 82.7714 21.6302 83.0805 21.7674C83.3895 21.9046 83.7144 22.0128 84.0549 22.0921C84.3955 22.1713 84.7519 22.211 85.124 22.211C85.9755 22.211 86.7686 22.054 87.5033 21.7399C88.2381 21.4259 88.8783 20.9975 89.4238 20.4549C89.9694 19.9122 90.3967 19.2765 90.7058 18.5478C91.0148 17.8191 91.1693 17.0402 91.1693 16.2109C91.1693 15.3755 91.0148 14.5935 90.7058 13.8648C90.3967 13.1362 89.9694 12.5005 89.4238 11.9578C88.8783 11.4151 88.2381 10.9868 87.5033 10.6727C86.7686 10.3587 85.9755 10.2017 85.124 10.2017C84.3608 10.2017 83.6844 10.3358 83.0947 10.6041C82.505 10.8724 81.9831 11.2322 81.5289 11.6834V7.48519C81.5289 7.33275 81.4753 7.20318 81.3681 7.09647C81.2609 6.98976 81.1127 6.9364 80.9235 6.9364H79.3625C79.2174 6.9364 79.0881 6.98823 78.9746 7.09189C78.861 7.19555 78.8043 7.32665 78.8043 7.48519V21.4518C78.8043 21.8177 79.003 22.0006 79.4003 22.0006H80.8289C81.0181 22.0006 81.1458 21.9549 81.212 21.8634ZM88.5109 16.2108C88.5109 15.7291 88.4226 15.2687 88.246 14.8297C88.0694 14.3907 87.8234 14.005 87.5081 13.6727C87.1927 13.3403 86.8206 13.0751 86.3917 12.8769C85.9628 12.6787 85.4993 12.5797 85.001 12.5797C84.4964 12.5797 84.0218 12.6787 83.5772 12.8769C83.1325 13.0751 82.7446 13.3403 82.4135 13.6727C82.0824 14.005 81.8222 14.3907 81.633 14.8297C81.4438 15.2687 81.3492 15.7291 81.3492 16.2108V16.2748C81.3555 16.7565 81.4564 17.2093 81.6519 17.6331C81.8475 18.0569 82.1092 18.4288 82.4372 18.7489C82.7651 19.0691 83.1483 19.3221 83.5866 19.5081C84.025 19.6941 84.4964 19.7871 85.001 19.7871C85.4993 19.7871 85.9628 19.6925 86.3917 19.5035C86.8206 19.3145 87.1927 19.0584 87.5081 18.7352C87.8234 18.412 88.0694 18.0325 88.246 17.5965C88.4226 17.1605 88.5109 16.6986 88.5109 16.2108ZM93.4588 7.09189C93.3705 7.19555 93.3264 7.32665 93.3264 7.48519V21.4518C93.3264 21.6347 93.3689 21.7719 93.4541 21.8634C93.5392 21.9549 93.6827 22.0006 93.8845 22.0006H95.4645C95.6411 22.0006 95.7814 21.9549 95.8855 21.8634C95.9895 21.7719 96.0416 21.6347 96.0416 21.4518V7.48519C96.0416 7.32665 95.9864 7.19555 95.876 7.09189C95.7656 6.98823 95.6474 6.9364 95.5212 6.9364H93.8656C93.6827 6.9364 93.5471 6.98823 93.4588 7.09189ZM108.52 20.7199C107.965 21.1772 107.358 21.537 106.699 21.7992C106.04 22.0614 105.316 22.1925 104.528 22.1925C103.676 22.1925 102.869 22.037 102.106 21.726C101.343 21.415 100.674 20.9882 100.1 20.4455C99.5263 19.9028 99.0706 19.2671 98.7332 18.5385C98.3957 17.8098 98.227 17.0247 98.227 16.1833C98.227 15.6406 98.2964 15.1162 98.4352 14.6101C98.5739 14.104 98.771 13.6299 99.0264 13.1878C99.2819 12.7457 99.5925 12.3402 99.9583 11.9713C100.324 11.6024 100.733 11.2869 101.183 11.0247C101.634 10.7625 102.123 10.5597 102.65 10.4164C103.177 10.2731 103.733 10.2015 104.32 10.2015C104.799 10.2015 105.272 10.2579 105.739 10.3707C106.205 10.4835 106.649 10.6436 107.068 10.8509C107.487 11.0582 107.88 11.3097 108.246 11.6055C108.612 11.9012 108.933 12.235 109.211 12.607C109.589 13.1192 109.867 13.671 110.043 14.2625C110.22 14.854 110.308 15.5095 110.308 16.229C110.308 16.4058 110.3 16.5537 110.285 16.6726C110.269 16.7915 110.229 16.8875 110.166 16.9607C110.103 17.0339 110.009 17.0872 109.883 17.1208C109.756 17.1543 109.58 17.1711 109.353 17.1711H100.961C101.043 17.6101 101.199 17.9988 101.429 18.3372C101.66 18.6757 101.932 18.9623 102.248 19.197C102.563 19.4318 102.907 19.6086 103.279 19.7275C103.651 19.8464 104.023 19.9059 104.395 19.9059C104.679 19.9059 104.952 19.8784 105.214 19.8235C105.475 19.7687 105.72 19.6955 105.947 19.604C106.174 19.5126 106.384 19.4074 106.576 19.2885C106.768 19.1696 106.937 19.0461 107.082 18.918C107.082 18.912 107.085 18.9089 107.092 18.9089C107.167 18.8418 107.24 18.7885 107.309 18.7488C107.379 18.7092 107.451 18.6894 107.527 18.6894C107.584 18.6894 107.648 18.7077 107.721 18.7443C107.793 18.7809 107.864 18.8418 107.934 18.9272C108.104 19.1284 108.249 19.2961 108.369 19.4302C108.489 19.5644 108.586 19.6772 108.662 19.7687C108.738 19.8601 108.793 19.9394 108.828 20.0065C108.862 20.0735 108.88 20.1406 108.88 20.2077C108.88 20.3784 108.76 20.5492 108.52 20.7199ZM103.232 12.6665C103.585 12.5354 103.948 12.4698 104.32 12.4698C104.749 12.4698 105.149 12.5308 105.521 12.6528C105.893 12.7747 106.224 12.947 106.514 13.1695C106.805 13.3921 107.052 13.6574 107.257 13.9653C107.462 14.2732 107.615 14.6132 107.716 14.9851H101.018C101.119 14.6315 101.278 14.3022 101.496 13.9973C101.713 13.6924 101.969 13.4272 102.262 13.2016C102.555 12.9759 102.878 12.7976 103.232 12.6665ZM123.799 25.6545C123.887 25.5905 123.96 25.4914 124.017 25.3573L129.759 11.0156C129.772 11.0034 129.786 10.9577 129.802 10.8784C129.818 10.7992 129.825 10.7382 129.825 10.6955C129.825 10.6101 129.792 10.5385 129.726 10.4806C129.66 10.4226 129.538 10.3937 129.362 10.3937H127.583C127.438 10.3937 127.322 10.4257 127.233 10.4897C127.145 10.5537 127.072 10.6528 127.016 10.787L124.215 18.1499C124.14 17.9669 124.039 17.7154 123.913 17.3953C123.786 17.0752 123.646 16.7154 123.492 16.316C123.337 15.9166 123.173 15.4898 123 15.0355C122.826 14.5812 122.654 14.1285 122.484 13.6773C122.314 13.226 122.15 12.7885 121.992 12.3647C121.834 11.9409 121.692 11.5583 121.566 11.2169L121.396 10.787C121.295 10.5309 121.109 10.4028 120.838 10.4028H119.126C118.968 10.4028 118.851 10.4333 118.775 10.4943C118.7 10.5553 118.662 10.6376 118.662 10.7412C118.662 10.8266 118.678 10.9028 118.709 10.9699V11.0522C118.716 11.0583 118.719 11.0675 118.719 11.0797L122.938 21.0218L121.273 25.1286C121.26 25.1408 121.246 25.1865 121.23 25.2658C121.215 25.3451 121.207 25.406 121.207 25.4487C121.207 25.5341 121.24 25.6057 121.306 25.6637C121.372 25.7216 121.494 25.7506 121.67 25.7506H123.449C123.594 25.7506 123.711 25.7185 123.799 25.6545Z" fill="white"/>
</mask>
<g mask="url(#mask1)">
<rect x="36.1359" y="6.06964" width="93.8711" height="20.0464" fill="#FF9800"/>
</g>
</svg>
